<svg viewBox="0 0 320 320" xmlns="http://www.w3.org/2000/svg">
  <defs>
    <radialGradient id="g1" cx="50%" cy="50%" r="50%">
      <stop offset="0%" stop-color="#00d4ff" stop-opacity="0.95"/>
      <stop offset="100%" stop-color="#00d4ff" stop-opacity="0"/>
    </radialGradient>
    <radialGradient id="g2" cx="50%" cy="50%" r="50%">
      <stop offset="0%" stop-color="#4ade80" stop-opacity="0.85"/>
      <stop offset="100%" stop-color="#4ade80" stop-opacity="0"/>
    </radialGradient>
    <radialGradient id="g3" cx="50%" cy="50%" r="50%">
      <stop offset="0%" stop-color="#a78bfa" stop-opacity="0.75"/>
      <stop offset="100%" stop-color="#a78bfa" stop-opacity="0"/>
    </radialGradient>
    <radialGradient id="g4" cx="50%" cy="50%" r="50%">
      <stop offset="0%" stop-color="#f472b6" stop-opacity="0.65"/>
      <stop offset="100%" stop-color="#f472b6" stop-opacity="0"/>
    </radialGradient>
    <radialGradient id="g5" cx="50%" cy="50%" r="50%">
      <stop offset="0%" stop-color="#fbbf24" stop-opacity="0.6"/>
      <stop offset="100%" stop-color="#fbbf24" stop-opacity="0"/>
    </radialGradient>
  </defs>
  <ellipse cx="120" cy="130" rx="85" ry="70" fill="url(#g1)" transform="rotate(-12 120 130)"/>
  <ellipse cx="200" cy="160" rx="80" ry="60" fill="url(#g2)" transform="rotate(18 200 160)"/>
  <ellipse cx="155" cy="210" rx="75" ry="55" fill="url(#g3)" transform="rotate(-8 155 210)"/>
  <ellipse cx="210" cy="110" rx="55" ry="45" fill="url(#g4)" transform="rotate(25 210 110)"/>
  <ellipse cx="100" cy="210" rx="50" ry="40" fill="url(#g5)" transform="rotate(-20 100 210)"/>
  <ellipse cx="240" cy="200" rx="45" ry="38" fill="url(#g1)" transform="rotate(10 240 200)" opacity="0.7"/>
  <ellipse cx="80" cy="140" rx="30" ry="25" fill="url(#g2)" transform="rotate(-30 80 140)" opacity="0.5"/>
  <ellipse cx="250" cy="140" rx="28" ry="22" fill="url(#g3)" transform="rotate(35 250 140)" opacity="0.5"/>
  <ellipse cx="160" cy="260" rx="32" ry="26" fill="url(#g4)" transform="rotate(5 160 260)" opacity="0.4"/>
  <circle cx="160" cy="160" r="8" fill="#ffffff" opacity="0.95"/>
  <circle cx="160" cy="160" r="16" fill="#ffffff" opacity="0.3"/>
  <circle cx="160" cy="160" r="28" fill="#00d4ff" opacity="0.15"/>
</svg>